<svg width="512" height="512" viewBox="0 0 512 512" fill="none" xmlns="http://www.w3.org/2000/svg">
<rect width="512" height="512" rx="64" fill="#152720"/>
<path d="M257.548 448C257.875 440.903 258.145 433.807 258.529 426.691C260.126 396.086 262.799 365.748 272.166 336.367C284.283 298.321 310.633 275.157 348.735 264.388C377.797 256.143 407.725 254.154 437.71 252.758C441.167 252.686 444.61 252.308 448 251.629C433.902 250.692 419.803 249.831 405.686 248.779C381.932 247 358.563 243.041 336.137 234.777C300.786 221.827 279.994 195.928 269.973 160.483C261.972 132.211 259.876 103.194 258.433 74.0615C258.279 71.0584 258.125 68.0743 257.933 65.0712C257.933 64.9182 257.606 64.7843 256.664 64C256.202 72.7608 255.798 80.9285 255.336 89.1154C253.798 115.895 250.567 142.522 242.027 168.268C230.91 201.8 208.849 224.295 175.363 235.944C145.108 246.445 113.642 248.97 82.0027 250.596C75.9801 250.775 69.971 251.267 64 252.069C76.675 252.758 89.4077 253.045 102.044 254.231C129.144 256.775 156.187 259.606 181.768 270.107C211.888 282.483 231.487 304.251 241.796 334.665C252.105 365.079 254.625 397.042 256.106 428.967C256.394 435.299 256.644 441.63 256.914 447.981L257.548 448Z" fill="#F4CBDF"/>
</svg>
